<?xml version="1.0" encoding="UTF-8" standalone="no"?>
<svg
   version="1.1"
   id="Layer_1"
   x="0px"
   y="0px"
   width="240px"
   height="242.455px"
   viewBox="0 0 240 242.455"
   enable-background="new 0 0 240 242.455"
   xml:space="preserve"
   sodipodi:docname="desacortador.svg"
   inkscape:version="1.3 (0e150ed6c4, 2023-07-21)"
   xmlns:inkscape="http://www.inkscape.org/namespaces/inkscape"
   xmlns:sodipodi="http://sodipodi.sourceforge.net/DTD/sodipodi-0.dtd"
   xmlns="http://www.w3.org/2000/svg"
   xmlns:svg="http://www.w3.org/2000/svg"><defs
     id="defs1" /><sodipodi:namedview
     id="namedview1"
     pagecolor="#ffffff"
     bordercolor="#000000"
     borderopacity="0.25"
     inkscape:showpageshadow="2"
     inkscape:pageopacity="0.0"
     inkscape:pagecheckerboard="0"
     inkscape:deskcolor="#d1d1d1"
     inkscape:zoom="2"
     inkscape:cx="35"
     inkscape:cy="60"
     inkscape:window-width="1440"
     inkscape:window-height="834"
     inkscape:window-x="0"
     inkscape:window-y="30"
     inkscape:window-maximized="1"
     inkscape:current-layer="Layer_1" /><g
     id="g4"
     transform="matrix(0.5,0,0,0.5,22.5,22.730157)"
     inkscape:export-filename="desacortador.webp"
     inkscape:export-xdpi="96"
     inkscape:export-ydpi="96"><rect
       style="fill:#e4e5e0;fill-opacity:1;stroke-width:5.42;stroke-linecap:round;stroke-linejoin:round"
       id="rect3"
       width="93.75042"
       height="79.706665"
       x="47.383335"
       y="64.910316" /><g
       id="g3"
       transform="matrix(0.41666667,0,0,0.41666667,45,45.460313)"><g
         id="g1"><path
           d="m 15.26,242.455 c -4.202,0 -8.019,-1.715 -10.782,-4.477 C 1.715,235.215 0,231.398 0,227.195 V 15.26 C 0,11.057 1.715,7.241 4.478,4.478 7.241,1.714 11.058,0 15.26,0 h 209.479 c 4.203,0 8.019,1.716 10.781,4.479 2.764,2.764 4.48,6.582 4.48,10.781 v 211.935 c 0,4.199 -1.716,8.018 -4.479,10.781 -2.764,2.762 -6.579,4.479 -10.781,4.479 z M 65.622,123.273 c 0,2.346 -1.903,4.25 -4.25,4.25 -2.348,0 -4.25,-1.904 -4.25,-4.25 V 89.494 c 0,-2.347 1.902,-4.25 4.25,-4.25 h 34.319 c 2.347,0 4.25,1.903 4.25,4.25 0,2.347 -1.903,4.25 -4.25,4.25 H 71.643 l 23.633,23.544 c 1.66,1.65 1.667,4.334 0.017,5.993 -1.65,1.66 -4.334,1.668 -5.994,0.018 L 65.622,99.71 Z m 75.961,-32.796 c -2.348,0 -4.25,-1.902 -4.25,-4.25 0,-2.347 1.902,-4.25 4.25,-4.25 h 33.777 c 2.348,0 4.25,1.903 4.25,4.25 v 34.32 c 0,2.348 -1.902,4.25 -4.25,4.25 -2.347,0 -4.25,-1.902 -4.25,-4.25 V 96.498 l -23.544,23.633 c -1.65,1.66 -4.334,1.667 -5.993,0.017 -1.659,-1.65 -1.667,-4.334 -0.017,-5.993 l 23.588,-23.678 z m 32.795,65.652 c 0,-2.346 1.902,-4.25 4.25,-4.25 2.347,0 4.25,1.904 4.25,4.25 v 33.779 c 0,2.346 -1.903,4.25 -4.25,4.25 h -34.319 c -2.348,0 -4.25,-1.904 -4.25,-4.25 0,-2.348 1.902,-4.25 4.25,-4.25 h 24.048 l -23.633,-23.545 c -1.659,-1.65 -1.667,-4.334 -0.017,-5.994 1.65,-1.658 4.334,-1.666 5.993,-0.016 l 23.678,23.588 z m -75.961,32.795 c 2.347,0 4.25,1.904 4.25,4.25 0,2.348 -1.903,4.25 -4.25,4.25 H 64.639 c -2.347,0 -4.25,-1.902 -4.25,-4.25 v -34.318 c 0,-2.348 1.903,-4.25 4.25,-4.25 2.347,0 4.25,1.902 4.25,4.25 v 24.049 l 23.544,-23.633 c 1.65,-1.66 4.333,-1.668 5.993,-0.018 1.66,1.65 1.667,4.334 0.017,5.994 L 74.855,188.924 Z M 229.479,46.68 H 10.52 v 180.515 c 0,1.299 0.535,2.482 1.396,3.344 0.861,0.862 2.046,1.396 3.344,1.396 h 209.479 c 1.297,0 2.48,-0.535 3.343,-1.398 0.862,-0.861 1.397,-2.045 1.397,-3.342 V 46.68 Z"
           id="path1" /></g><g
         id="g2"
         transform="translate(8.8239343,71.656559)"><circle
           style="fill:#ef2929;stroke-width:5.42;stroke-linecap:round;stroke-linejoin:round"
           id="path2"
           cx="12.922318"
           cy="-50.252747"
           r="7.6934509" /><circle
           style="fill:#fce94f;stroke-width:5.42;stroke-linecap:round;stroke-linejoin:round"
           id="path2-6"
           cx="31.768053"
           cy="-50.252747"
           r="7.6934509" /><circle
           style="fill:#73d216;stroke-width:5.42;stroke-linecap:round;stroke-linejoin:round"
           id="path2-6-8"
           cx="50.613789"
           cy="-50.252747"
           r="7.6934509" /></g></g></g></svg>
